<svg width="87" height="31" viewBox="0 0 87 31" fill="none" xmlns="http://www.w3.org/2000/svg">
<g id="Vector">
<path d="M17.31 28.792C17.4021 28.7331 17.5709 28.5712 17.8164 28.3063C18.062 28.0413 18.2001 27.8352 18.2308 27.688C18.2615 27.8647 18.2154 28.0413 18.0926 28.2179C18.0006 28.3946 17.8318 28.6007 17.5862 28.8362C17.3714 29.0423 17.0338 29.2778 16.5734 29.5427C15.8368 29.9549 14.9928 30.3082 14.0414 30.6026L13.4429 30.735C12.7063 30.9117 11.939 31 11.141 31C9.94405 31 8.79312 30.8234 7.68822 30.4701C6.61402 30.0874 5.61655 29.5722 4.6958 28.9245C3.80575 28.2474 3.00777 27.4525 2.30186 26.5399C1.62665 25.6273 1.08955 24.6263 0.690559 23.537V23.4487C0.659867 23.4193 0.644522 23.4046 0.644522 23.4046C0.491064 22.8746 0.337607 22.3006 0.184149 21.6823C0.184149 21.6235 0.168803 21.5499 0.138112 21.4615C0.138112 21.3732 0.138112 21.2849 0.138112 21.1966C0.0460372 20.6961 0 20.2104 0 19.7393V18.9886C0.0306915 18.7531 0.0460372 18.547 0.0460372 18.3704C0.0460372 18.1643 0.0767287 17.9435 0.138112 17.708C0.168803 17.5313 0.199495 17.3694 0.230186 17.2222C0.260878 17.0456 0.306915 16.8837 0.368298 16.7365L0.50641 16.2066C0.567793 15.9122 0.629176 15.6619 0.690559 15.4558C1.08955 14.4255 1.62665 13.4539 2.30186 12.5413C2.97708 11.6287 3.7904 10.8338 4.74184 10.1567C5.66258 9.47958 6.66006 8.96439 7.73426 8.61111C8.83916 8.25784 9.97474 8.0812 11.141 8.0812C12.1231 8.0812 13.1206 8.14008 14.1334 8.25784C15.1463 8.37559 16.0824 8.72887 16.9417 9.31766C17.0338 9.37654 17.1872 9.47958 17.4021 9.62678C17.6476 9.74454 17.7704 9.87702 17.7704 10.0242C17.7704 10.2597 17.7857 10.4364 17.8164 10.5541C17.7857 10.4364 17.5862 10.2745 17.2179 10.0684C16.8803 9.8623 16.6501 9.72982 16.5274 9.67094C15.8215 9.25878 15.0542 8.96439 14.2255 8.78775C13.4275 8.58167 12.6296 8.49335 11.8316 8.52279C11.6474 8.52279 11.4633 8.52279 11.2791 8.52279C11.095 8.52279 10.8955 8.53751 10.6806 8.56695C9.29953 8.74359 8.08721 9.30295 7.0437 10.245C6.03088 11.1871 5.24825 12.2322 4.6958 13.3803C4.17405 14.4402 3.83644 15.603 3.68298 16.8689C3.59091 17.6638 3.54487 18.4881 3.54487 19.3419V19.6952C3.54487 20.0779 3.54487 20.4459 3.54487 20.7991C3.57556 21.1524 3.60625 21.5204 3.63694 21.9031C3.72902 22.6686 3.88248 23.434 4.09732 24.1994C4.34285 24.9649 4.64976 25.7009 5.01806 26.4074C5.41705 27.0845 5.87742 27.7175 6.39918 28.3063C6.95163 28.8951 7.59615 29.3808 8.33275 29.7635L8.37878 29.8077C9.42229 30.3376 10.5425 30.6026 11.7395 30.6026C12.9365 30.6026 14.0721 30.3965 15.1463 29.9843C15.3304 29.896 15.5146 29.8224 15.6987 29.7635C15.8829 29.6752 16.0517 29.5869 16.2051 29.4986C16.3586 29.4397 16.4967 29.3661 16.6195 29.2778C16.7422 29.1895 16.8803 29.1011 17.0338 29.0128C17.0952 28.9834 17.1872 28.9098 17.31 28.792Z" fill="black"/>
<path d="M23.9135 22.7863C23.3917 23.1985 23.1155 23.7284 23.0848 24.3761C23.0541 24.9943 23.1769 25.5978 23.4531 26.1866C23.8214 27.0404 24.2971 27.7764 24.8803 28.3946C25.4634 28.9834 26.0619 29.4397 26.6757 29.7635L26.7218 29.8077C27.7653 30.3376 28.8855 30.6026 30.0825 30.6026C31.2794 30.6026 32.415 30.3965 33.4892 29.9843C33.8268 29.8666 34.1798 29.7047 34.5481 29.4986C34.7015 29.4397 34.8397 29.3661 34.9624 29.2778C35.0852 29.1895 35.2233 29.1011 35.3768 29.0128C35.4381 28.9834 35.5302 28.9098 35.653 28.792C35.7451 28.7331 35.8218 28.6743 35.8832 28.6154C35.9752 28.5565 36.0673 28.4976 36.1594 28.4387C36.3742 28.2327 36.5277 27.9824 36.6198 27.688C36.6198 27.8647 36.5737 28.0413 36.4817 28.2179C36.3589 28.3946 36.1747 28.6007 35.9292 28.8362C35.7144 29.0423 35.3768 29.2778 34.9164 29.5427C34.1798 29.9549 33.3358 30.3082 32.3843 30.6026L31.7859 30.735C31.0493 30.9117 30.2973 31 29.53 31C27.9955 31 26.553 30.7056 25.2025 30.1168C23.8521 29.528 22.6705 28.7331 21.6577 27.7322C20.6448 26.7018 19.8469 25.5095 19.2637 24.1553C18.6806 22.7716 18.3737 21.2996 18.343 19.7393V19.2536C18.343 18.3115 18.4811 17.3694 18.7573 16.4274C19.0335 15.4558 19.4325 14.5432 19.9543 13.6895C20.6602 12.4824 21.5656 11.4373 22.6705 10.5541C23.7754 9.67094 25.0184 9.02327 26.3995 8.61111C27.1054 8.40503 27.842 8.25783 28.6093 8.16952C29.4073 8.0812 30.1899 8.0812 30.9572 8.16952C31.7245 8.25783 32.4611 8.44919 33.167 8.74359C33.8729 9.03799 34.5021 9.45014 35.0545 9.98006C35.8525 10.7455 36.3742 11.6728 36.6198 12.7621C36.8653 13.8219 36.8193 14.8818 36.4817 15.9416C36.2054 16.7659 35.8218 17.443 35.3307 17.9729C34.8704 18.5028 34.3179 18.9444 33.6734 19.2977C33.0596 19.651 32.3843 19.9454 31.6477 20.1809C30.9111 20.4164 30.1439 20.6225 29.3459 20.7991C28.3331 21.0347 27.3356 21.2996 26.3535 21.594C25.3713 21.8884 24.558 22.2858 23.9135 22.7863ZM22.4403 24.2436C22.5324 23.7431 22.7626 23.3162 23.1308 22.963C23.4991 22.6097 23.8061 22.3594 24.0516 22.2122C24.6654 21.8001 25.3099 21.5057 25.9852 21.3291C26.6911 21.123 27.397 20.9463 28.1029 20.7991C28.8088 20.6519 29.5147 20.49 30.2206 20.3134C30.9265 20.1368 31.5864 19.8571 32.2002 19.4744C33.1209 18.915 33.8422 18.1496 34.3639 17.1781C34.8857 16.2066 35.1466 15.2056 35.1466 14.1752V14.0869C35.1159 13.3509 34.9624 12.6591 34.6862 12.0114C34.41 11.3343 34.0263 10.7455 33.5353 10.245C33.0442 9.7151 32.4611 9.30294 31.7859 9.00855C31.1106 8.68471 30.374 8.52279 29.5761 8.52279C28.8395 8.52279 28.1336 8.66999 27.4584 8.96439C26.7831 9.22934 26.1693 9.59734 25.6169 10.0684C25.0644 10.51 24.5734 11.0252 24.1437 11.614C23.714 12.1733 23.3457 12.7621 23.0388 13.3803C22.5784 14.3519 22.2561 15.3675 22.072 16.4274C21.9185 17.4872 21.8418 18.547 21.8418 19.6068C21.8725 20.1073 21.9032 20.5931 21.9339 21.0641C21.9646 21.5057 22.0106 21.9473 22.072 22.3889C22.1027 22.5361 22.1334 22.7274 22.1641 22.963C22.1948 23.169 22.2254 23.3751 22.2561 23.5812C22.3175 23.7873 22.3789 24.0081 22.4403 24.2436Z" fill="black"/>
<path d="M43.4455 28.0855C43.4455 28.4387 43.4762 28.7773 43.5376 29.1011C43.599 29.3955 43.7678 29.6752 44.044 29.9402C44.3509 30.1757 44.7959 30.3818 45.3791 30.5584C45.9929 30.735 46.8216 30.8528 47.8651 30.9117H43.4455C42.7703 30.8822 42.1872 30.7645 41.6961 30.5584C41.2357 30.3818 40.8214 30.1021 40.4531 29.7194C40.0848 29.3367 39.9006 28.792 39.9006 28.0855V2.78205C39.9006 2.10494 39.6705 1.50143 39.2101 0.971511C38.7497 0.441596 38.1666 0.117759 37.4607 0H45.8855C45.1796 0.117759 44.5964 0.441596 44.1361 0.971511C43.6757 1.50143 43.4455 2.10494 43.4455 2.78205V28.0855Z" fill="black"/>
<path d="M52.3472 28.0855C52.3472 28.4387 52.3779 28.7773 52.4393 29.1011C52.5007 29.3955 52.6695 29.6752 52.9457 29.9402C53.2526 30.1757 53.6977 30.3818 54.2808 30.5584C54.8946 30.735 55.7233 30.8528 56.7668 30.9117H52.3472C51.672 30.8822 51.0889 30.7645 50.5978 30.5584C50.1375 30.3818 49.7231 30.1021 49.3548 29.7194C48.9865 29.3367 48.8024 28.792 48.8024 28.0855V2.78205C48.8024 2.10494 48.5722 1.50143 48.1118 0.971511C47.6514 0.441596 47.0683 0.117759 46.3624 0H54.7872C54.0813 0.117759 53.4982 0.441596 53.0378 0.971511C52.5774 1.50143 52.3472 2.10494 52.3472 2.78205V28.0855Z" fill="black"/>
<path d="M74.5336 11.4815C74.8712 10.6277 74.9479 9.89174 74.7638 9.27351C74.6103 8.62583 74.2421 8.2284 73.6589 8.0812H78.3087C77.6335 8.2284 76.9736 8.62583 76.3291 9.27351C75.6845 9.89174 75.1935 10.6277 74.8559 11.4815L73.3366 15.4558L72.6921 17.1781L68.779 27.5114C68.5641 28.1002 68.4567 28.6448 68.4567 29.1453C68.825 29.5869 69.2547 29.9696 69.7457 30.2934C70.2675 30.6173 70.8046 30.8234 71.357 30.9117H68.3186C67.5206 30.9117 66.7226 30.632 65.9246 30.0727C65.1574 29.5133 64.6203 28.8509 64.3133 28.0855L59.5255 15.4558L57.7761 10.9074C57.5305 10.2303 57.0701 9.62678 56.3949 9.09687C55.7504 8.56695 55.0445 8.2284 54.2772 8.0812H62.702C62.0268 8.2284 61.5665 8.56695 61.3209 9.09687C61.0754 9.62678 61.0754 10.2303 61.3209 10.9074L63.0703 15.4558L67.8582 28.0855C67.8889 28.1738 67.9349 28.2768 67.9963 28.3946C68.1805 28.1002 68.3339 27.8058 68.4567 27.5114L72.3699 17.1781L73.0144 15.4558L74.5336 11.4815Z" fill="black"/>
<path d="M84.56 28.0855C84.56 28.792 84.7902 29.4103 85.2506 29.9402C85.711 30.4406 86.2941 30.7645 87 30.9117H78.5752C79.2811 30.7645 79.8642 30.4406 80.3246 29.9402C80.785 29.4103 81.0152 28.792 81.0152 28.0855V10.9074C81.0152 10.2303 80.785 9.62678 80.3246 9.09687C79.8642 8.56695 79.2811 8.2284 78.5752 8.0812H87C86.2941 8.2284 85.711 8.56695 85.2506 9.09687C84.7902 9.62678 84.56 10.2303 84.56 10.9074V28.0855ZM82.8106 5.82906C82.0126 5.82906 81.3528 5.57882 80.831 5.07835C80.3093 4.54843 80.0484 3.91548 80.0484 3.17949C80.0484 2.44349 80.3093 1.82526 80.831 1.32479C81.3528 0.794873 82.0126 0.529916 82.8106 0.529916C83.5779 0.529916 84.2224 0.794873 84.7442 1.32479C85.2966 1.82526 85.5728 2.44349 85.5728 3.17949C85.5728 3.91548 85.2966 4.54843 84.7442 5.07835C84.2224 5.57882 83.5779 5.82906 82.8106 5.82906Z" fill="black"/>
<path d="M84.1831 3.66631C84.3926 3.75309 84.4923 3.98986 84.3592 4.1676C84.1772 4.41053 83.9349 4.60892 83.6516 4.74327C83.2439 4.93662 82.7779 4.98474 82.3367 4.87905C81.8954 4.77336 81.5077 4.52072 81.2426 4.16623C80.9776 3.81173 80.8525 3.37844 80.8896 2.94366C80.9267 2.50887 81.1237 2.10089 81.4454 1.7925C81.767 1.48411 82.1925 1.29538 82.6458 1.25998C83.099 1.22458 83.5507 1.34481 83.9201 1.59923C84.1768 1.77601 84.3822 2.00959 84.5206 2.27769C84.6218 2.47384 84.4832 2.69189 84.2618 2.74481C84.0404 2.79773 83.8215 2.66092 83.6885 2.48311C83.6197 2.39128 83.5355 2.31002 83.4382 2.24307C83.2279 2.09824 82.9708 2.0298 82.7128 2.04995C82.4548 2.0701 82.2126 2.17754 82.0295 2.35309C81.8464 2.52863 81.7343 2.76088 81.7131 3.00837C81.692 3.25587 81.7632 3.50252 81.9141 3.70431C82.065 3.9061 82.2857 4.04991 82.5369 4.11008C82.788 4.17024 83.0533 4.14285 83.2854 4.03279C83.3927 3.98191 83.4896 3.91489 83.573 3.83501C83.7345 3.68035 83.9737 3.57953 84.1831 3.66631Z" fill="white"/>
<path d="M61.3114 18.874C61.3195 18.8799 61.3393 18.8889 61.3706 18.9012C61.402 18.9135 61.4248 18.9187 61.439 18.9167C61.424 18.9247 61.4067 18.9262 61.387 18.9214C61.3683 18.9192 61.3446 18.9115 61.3159 18.8983C61.2907 18.8867 61.2592 18.8659 61.2213 18.8358C61.1617 18.7873 61.1042 18.7281 61.0486 18.6581L61.0184 18.6126C60.9801 18.5569 60.9487 18.4959 60.9244 18.4297C60.8879 18.3305 60.8688 18.2297 60.8669 18.1273C60.8687 18.0265 60.8847 17.9281 60.915 17.832C60.9489 17.7376 60.9962 17.6472 61.057 17.5608C61.1187 17.477 61.1925 17.402 61.2785 17.3357L61.2865 17.333C61.2882 17.3295 61.2891 17.3278 61.2891 17.3278C61.3321 17.2989 61.3792 17.2687 61.4302 17.2372C61.4355 17.2354 61.4417 17.2318 61.4487 17.2266C61.4567 17.2239 61.4647 17.2212 61.4726 17.2185C61.5149 17.1956 61.5573 17.177 61.5997 17.1627L61.6674 17.1398C61.6896 17.1352 61.7086 17.1301 61.7245 17.1248C61.7431 17.1185 61.7639 17.1143 61.787 17.1122C61.8039 17.1094 61.8194 17.107 61.8336 17.105C61.8505 17.1022 61.8665 17.1011 61.8816 17.1017L61.9336 17.097C61.962 17.0931 61.9864 17.0906 62.0069 17.0894C62.1119 17.0911 62.2158 17.106 62.3186 17.1342C62.4215 17.1623 62.5179 17.2056 62.6079 17.2638C62.697 17.3195 62.7738 17.3866 62.8384 17.4649C62.9039 17.5457 62.9545 17.6345 62.99 17.7312C63.02 17.8127 63.0451 17.8972 63.0653 17.9848C63.0856 18.0723 63.0823 18.1607 63.0554 18.2499C63.0529 18.2594 63.0483 18.2752 63.0415 18.2975C63.0384 18.3215 63.0302 18.3357 63.017 18.3402C62.9957 18.3474 62.9803 18.354 62.9706 18.3602C62.9803 18.354 62.9888 18.3325 62.9961 18.2957C63.0044 18.2614 63.0093 18.2383 63.0109 18.2263C63.0265 18.1552 63.0297 18.0826 63.0204 18.0085C63.0146 17.9361 62.9982 17.8672 62.9713 17.802C62.9657 17.7867 62.96 17.7714 62.9544 17.7561C62.9488 17.7409 62.9414 17.7248 62.9322 17.7079C62.8742 17.5987 62.7868 17.5152 62.6701 17.4574C62.5544 17.4021 62.4363 17.3691 62.316 17.3583C62.2046 17.3473 62.0895 17.3547 61.9707 17.3806C61.8963 17.3972 61.8206 17.4185 61.7436 17.4445L61.7118 17.4553C61.6773 17.4669 61.6441 17.4782 61.6123 17.4889C61.5814 17.5022 61.5491 17.516 61.5156 17.5302C61.4494 17.5612 61.3851 17.5972 61.3226 17.6384C61.2611 17.6821 61.2042 17.7299 61.1517 17.782C61.1028 17.8357 61.0598 17.8932 61.0227 17.9544C60.9864 18.0182 60.9623 18.0864 60.9503 18.1592L60.9477 18.1643C60.9317 18.267 60.942 18.368 60.9785 18.4673C61.0149 18.5665 61.0681 18.6544 61.138 18.7309C61.1516 18.7435 61.1638 18.7565 61.1748 18.77C61.1883 18.7826 61.2014 18.7939 61.2141 18.8039C61.2241 18.8149 61.2349 18.8241 61.2466 18.8316C61.2583 18.839 61.2705 18.8478 61.2831 18.8578C61.2876 18.862 61.2971 18.8674 61.3114 18.874Z" fill="white"/>
<path d="M62.054 19.2386C62.0009 19.2079 61.9447 19.2011 61.8854 19.2183C61.8288 19.2346 61.7781 19.2632 61.7335 19.304C61.6678 19.3606 61.6159 19.4225 61.578 19.4897C61.5427 19.556 61.5198 19.6195 61.5093 19.6803L61.5067 19.6854C61.4908 19.7881 61.501 19.8891 61.5375 19.9884C61.574 20.0876 61.6272 20.1755 61.6971 20.252C61.718 20.2764 61.7433 20.3008 61.7731 20.325C61.7831 20.336 61.794 20.3452 61.8057 20.3527C61.8174 20.3601 61.8295 20.3689 61.8422 20.3789C61.8467 20.3831 61.8561 20.3885 61.8705 20.3951C61.8786 20.401 61.8862 20.4055 61.8934 20.4088C61.9015 20.4147 61.9096 20.4205 61.9178 20.4263C61.9429 20.4379 61.9701 20.443 61.9994 20.4416C61.9835 20.447 61.9662 20.4486 61.9475 20.4463C61.9278 20.4415 61.9036 20.4326 61.8749 20.4194C61.8498 20.4078 61.8183 20.387 61.7804 20.3569C61.7208 20.3084 61.6632 20.2492 61.6077 20.1792L61.5775 20.1337C61.5391 20.078 61.5083 20.0183 61.4849 19.9547C61.4381 19.8274 61.4207 19.6988 61.4326 19.5689C61.4445 19.439 61.4801 19.3167 61.5395 19.2022C61.6015 19.0869 61.6846 18.9843 61.7889 18.8947C61.8958 18.8042 62.0191 18.7339 62.1588 18.6838L62.2026 18.669C62.2875 18.6403 62.3766 18.623 62.4699 18.6172C62.5659 18.6105 62.6603 18.6158 62.7532 18.633C62.8835 18.6547 63.0053 18.698 63.1185 18.7627C63.2318 18.8274 63.3281 18.9107 63.4073 19.0127C63.4474 19.0649 63.4831 19.1215 63.5145 19.1825C63.5467 19.246 63.5706 19.3109 63.586 19.3772C63.6014 19.4435 63.6066 19.5104 63.6016 19.5779C63.5966 19.6454 63.5786 19.7102 63.5477 19.7721C63.503 19.8616 63.4354 19.9332 63.3447 19.9867C63.2566 20.0394 63.1597 20.0679 63.0539 20.0722C62.9712 20.0744 62.8985 20.0632 62.8358 20.0386C62.774 20.0166 62.7173 19.9843 62.6658 19.9416C62.6153 19.9015 62.5682 19.8544 62.5245 19.8005C62.4808 19.7466 62.4389 19.6893 62.3986 19.6285C62.3465 19.5517 62.2923 19.477 62.2358 19.4046C62.1793 19.3321 62.1187 19.2768 62.054 19.2386ZM61.8777 19.1608C61.9256 19.1532 61.9711 19.1593 62.0142 19.1791C62.0573 19.1988 62.0892 19.2167 62.1099 19.2325C62.1658 19.2709 62.2119 19.3153 62.2484 19.366C62.2885 19.4182 62.326 19.4714 62.3607 19.5254C62.3955 19.5795 62.4316 19.6331 62.4691 19.6862C62.5065 19.7394 62.5518 19.7856 62.605 19.8248C62.6835 19.8841 62.7745 19.9206 62.8779 19.9343C62.9814 19.9479 63.0796 19.939 63.1724 19.9076L63.1804 19.9049C63.2458 19.88 63.3035 19.8462 63.3534 19.8035C63.406 19.76 63.4474 19.7102 63.4775 19.6542C63.5103 19.5974 63.5297 19.5364 63.5357 19.4715C63.5443 19.4056 63.5364 19.3396 63.5121 19.2734C63.4896 19.2123 63.4549 19.1583 63.4077 19.1113C63.3633 19.0633 63.3114 19.0237 63.2521 18.9922C63.1955 18.9599 63.1341 18.9348 63.0679 18.9171C63.0044 18.8986 62.9401 18.886 62.875 18.8794C62.7735 18.8708 62.6721 18.875 62.571 18.8921C62.4708 18.9116 62.3729 18.9376 62.2774 18.9699C62.2332 18.9877 62.1904 19.005 62.1488 19.0219C62.11 19.0379 62.0716 19.0552 62.0337 19.0738C62.0213 19.0808 62.005 19.0892 61.9847 19.0989C61.9671 19.1077 61.9495 19.1165 61.9318 19.1254C61.9151 19.1367 61.8971 19.1486 61.8777 19.1608Z" fill="white"/>
<path d="M62.1717 21.0198C62.1398 21.0305 62.1102 21.0434 62.0829 21.0584C62.0583 21.0724 62.0382 21.095 62.0227 21.1259C62.0109 21.1586 62.0059 21.2018 62.0077 21.2555C62.0105 21.3118 62.0251 21.3841 62.0516 21.4724L61.9169 21.1059C61.899 21.049 61.8919 20.9971 61.8955 20.9501C61.8974 20.9065 61.9099 20.8636 61.9332 20.8214C61.9565 20.7792 61.9999 20.7474 62.0636 20.7258L64.3442 19.9546C64.4052 19.934 64.4526 19.8965 64.4863 19.8422C64.52 19.7878 64.5314 19.7296 64.5205 19.6675L64.7773 20.3661C64.7452 20.3112 64.6982 20.2727 64.6364 20.2507C64.5746 20.2286 64.5132 20.2279 64.4522 20.2486L62.1717 21.0198Z" fill="white"/>
<path d="M62.443 21.758C62.4111 21.7687 62.3816 21.7816 62.3542 21.7966C62.3296 21.8106 62.3095 21.8331 62.294 21.8641C62.2822 21.8967 62.2772 21.9399 62.279 21.9937C62.2818 22.05 62.2964 22.1223 62.3229 22.2106L62.1882 21.8441C62.1703 21.7872 62.1632 21.7353 62.1668 21.6883C62.1687 21.6447 62.1812 21.6018 62.2045 21.5596C62.2278 21.5174 62.2712 21.4855 62.3349 21.464L64.6155 20.6928C64.6765 20.6722 64.7239 20.6347 64.7576 20.5804C64.7913 20.526 64.8027 20.4678 64.7918 20.4057L65.0486 21.1043C65.0165 21.0494 64.9695 21.0109 64.9077 20.9888C64.8459 20.9668 64.7845 20.9661 64.7235 20.9868L62.443 21.758Z" fill="white"/>
<path d="M64.6156 23.0917C64.7029 23.0937 64.7715 23.0776 64.8217 23.0435C64.8754 23.011 64.8999 22.9684 64.8954 22.9156L65.0372 23.3011C65.0033 23.2496 64.9474 23.207 64.8694 23.1733C64.794 23.1387 64.7127 23.1204 64.6255 23.1184L64.221 23.1136L64.0461 23.1126L62.9955 23.1031C62.9359 23.1032 62.8835 23.1109 62.8384 23.1261C62.8099 23.1701 62.7885 23.2174 62.7742 23.268C62.761 23.3212 62.7587 23.372 62.7676 23.4205L62.675 23.1685C62.6507 23.1024 62.6516 23.0277 62.6777 22.9444C62.7047 22.8638 62.748 22.799 62.8077 22.7503L63.8 21.9683L64.1566 21.6846C64.2102 21.6436 64.2505 21.587 64.2777 21.5149C64.3058 21.4453 64.3148 21.3764 64.3047 21.3083L64.5615 22.0069C64.5277 21.9554 64.4831 21.9276 64.4279 21.9234C64.3726 21.9192 64.3182 21.9376 64.2647 21.9786L63.9081 22.2623L62.9157 23.0442C62.9087 23.0495 62.9008 23.0564 62.8921 23.0651C62.9242 23.0714 62.9554 23.0751 62.9857 23.0763L64.0363 23.0859L64.2111 23.0869L64.6156 23.0917Z" fill="white"/>
<path d="M63.4247 24.4292C63.3611 24.4508 63.3124 24.4887 63.2786 24.543C63.2476 24.5964 63.2361 24.6547 63.2444 24.7177L62.9876 24.0191C63.0224 24.0731 63.0694 24.1116 63.1285 24.1345C63.1903 24.1565 63.253 24.1568 63.3167 24.1353L64.8649 23.6117C64.926 23.5911 64.9733 23.5536 65.0071 23.4993C65.0408 23.4449 65.0535 23.3863 65.0453 23.3232L65.3021 24.0219C65.2673 23.9678 65.219 23.9298 65.1572 23.9078C65.0954 23.8857 65.034 23.885 64.973 23.9057L63.4247 24.4292ZM65.3773 23.6058C65.353 23.5396 65.3555 23.4773 65.3847 23.4188C65.4165 23.3594 65.4656 23.3184 65.532 23.296C65.5983 23.2736 65.662 23.2764 65.723 23.3044C65.7866 23.3315 65.8306 23.3781 65.8549 23.4443C65.8783 23.5079 65.8741 23.5695 65.8422 23.6289C65.814 23.6899 65.7667 23.7317 65.7003 23.7541C65.634 23.7766 65.5685 23.7729 65.5039 23.7433C65.4429 23.7153 65.4007 23.6694 65.3773 23.6058Z" fill="white"/>
<path d="M65.7129 23.6143C65.7265 23.6287 65.75 23.6302 65.7621 23.6146C65.7787 23.5932 65.7895 23.5681 65.7934 23.5413C65.7989 23.503 65.7896 23.4639 65.7673 23.431C65.745 23.398 65.7111 23.3734 65.6716 23.3615C65.6321 23.3496 65.5896 23.3512 65.5517 23.366C65.5138 23.3808 65.483 23.4079 65.4647 23.4423C65.4463 23.4768 65.4418 23.5164 65.4518 23.5542C65.4618 23.5919 65.4857 23.6253 65.5193 23.6483C65.5426 23.6644 65.5695 23.6747 65.5976 23.6787C65.618 23.6815 65.6336 23.664 65.6319 23.6444C65.6302 23.6252 65.6124 23.6115 65.5932 23.606C65.5825 23.6029 65.5722 23.5982 65.563 23.5918C65.5439 23.5787 65.5303 23.5597 65.5246 23.5382C65.5189 23.5167 65.5215 23.4941 65.5319 23.4745C65.5423 23.4549 65.5599 23.4395 65.5815 23.4311C65.603 23.4227 65.6272 23.4218 65.6497 23.4285C65.6722 23.4353 65.6915 23.4493 65.7042 23.4681C65.7169 23.4868 65.7221 23.5091 65.719 23.5309C65.7176 23.5405 65.7147 23.5497 65.7103 23.5583C65.7011 23.5764 65.6988 23.5994 65.7129 23.6143Z" fill="black"/>
</g>
</svg>
